<svg width="26" height="26" viewBox="0 0 26 26" fill="none" xmlns="http://www.w3.org/2000/svg">
<g opacity="0.6">
<rect x="0.750041" y="0.749919" width="24.1667" height="24.1667" rx="6.25" fill="#0F6B8A"/>
<rect x="0.750041" y="0.749919" width="24.1667" height="24.1667" rx="6.25" stroke="#A2C4D4" stroke-width="0.833333"/>
<path d="M11.7136 12.9376C11.7657 12.8595 11.8438 12.8334 11.9219 12.8334C12.0261 12.8334 12.1042 12.8595 12.1563 12.9376L12.7292 13.5105C12.8073 13.5626 12.8334 13.6407 12.8334 13.7449C12.8334 13.823 12.8073 13.9011 12.7292 13.9532L9.81254 16.8699L10.5417 17.599C10.6719 17.7032 10.724 17.8595 10.724 18.0417C10.724 18.198 10.6719 18.3542 10.5417 18.4845C10.4375 18.5886 10.2813 18.6667 10.099 18.6667H7.62504C7.46879 18.6667 7.31254 18.5886 7.18233 18.4845C7.07817 18.3542 7.00004 18.198 7.00004 18.0417V15.5678C7.00004 15.3855 7.07817 15.2292 7.18233 15.1251C7.31254 14.9949 7.46879 14.9428 7.62504 14.9428C7.80733 14.9428 7.96358 14.9949 8.06775 15.1251L8.79692 15.8542L11.7136 12.9376Z" fill="white"/>
<path d="M18.4845 7.18221C18.6147 7.28638 18.6667 7.44263 18.6667 7.62492L18.6667 10.0989C18.6667 10.2551 18.6147 10.4114 18.4845 10.5416C18.3803 10.6458 18.224 10.7239 18.0417 10.7239C17.8855 10.7239 17.7292 10.6458 17.599 10.5416L16.8699 9.81242L13.9532 12.7291C13.9011 12.7812 13.849 12.8333 13.7449 12.8333C13.6667 12.8333 13.5886 12.7812 13.5105 12.7291L12.9376 12.1562C12.8855 12.078 12.8334 11.9999 12.8334 11.9218C12.8334 11.8176 12.8855 11.7655 12.9376 11.7135L15.8542 8.79679L15.1251 8.06763C15.0209 7.93742 14.9428 7.78117 14.9428 7.62492C14.9428 7.44263 15.0209 7.28638 15.1251 7.18221C15.2553 7.052 15.4115 6.99992 15.5678 6.99992L18.0417 6.99992C18.224 6.99992 18.3803 7.052 18.4845 7.18221Z" fill="white"/>
</g>
</svg>
