<svg width="26" height="26" viewBox="0 0 26 26" fill="none" xmlns="http://www.w3.org/2000/svg">
<g opacity="0.6">
<rect x="1.25065" y="1.25016" width="24.1667" height="24.1667" rx="6.25" fill="#0F6B8A"/>
<rect x="1.25065" y="1.25016" width="24.1667" height="24.1667" rx="6.25" stroke="#A2C4D4" stroke-width="0.833333"/>
<path d="M8.62077 19.0627C8.56868 19.1408 8.49056 19.1668 8.41243 19.1668C8.30827 19.1668 8.23014 19.1408 8.17806 19.0627L7.60514 18.4897C7.52702 18.4377 7.50098 18.3595 7.50098 18.2554C7.50098 18.1772 7.52702 18.0991 7.60514 18.047L10.5218 15.1304L9.79264 14.4012C9.66244 14.297 9.61035 14.1408 9.61035 13.9585C9.61035 13.8022 9.66244 13.646 9.79264 13.5158C9.89681 13.4116 10.0531 13.3335 10.2354 13.3335H12.7093C12.8656 13.3335 13.0218 13.4116 13.152 13.5158C13.2562 13.646 13.3343 13.8022 13.3343 13.9585V16.4325C13.3343 16.6147 13.2562 16.771 13.152 16.8752C13.0218 17.0054 12.8656 17.0575 12.7093 17.0575C12.527 17.0575 12.3708 17.0054 12.2666 16.8752L11.5374 16.146L8.62077 19.0627Z" fill="white"/>
<path d="M13.5163 13.151C13.3861 13.0469 13.334 12.8906 13.334 12.7083V10.2344C13.334 10.0781 13.3861 9.92188 13.5163 9.79167C13.6204 9.6875 13.7767 9.60938 13.959 9.60938C14.1152 9.60938 14.2715 9.6875 14.4017 9.79167L15.1309 10.5208L18.0475 7.60417C18.0996 7.55208 18.1517 7.5 18.2559 7.5C18.334 7.5 18.4121 7.55208 18.4902 7.60417L19.0632 8.17708C19.1152 8.25521 19.1673 8.33333 19.1673 8.41146C19.1673 8.51562 19.1152 8.56771 19.0632 8.61979L16.1465 11.5365L16.8757 12.2656C16.9798 12.3958 17.0579 12.5521 17.0579 12.7083C17.0579 12.8906 16.9798 13.0469 16.8757 13.151C16.7454 13.2813 16.5892 13.3333 16.4329 13.3333H13.959C13.7767 13.3333 13.6204 13.2813 13.5163 13.151Z" fill="white"/>
</g>
</svg>
