<svg width="52" height="52" viewBox="0 0 52 52" fill="none" xmlns="http://www.w3.org/2000/svg">
<g filter="url(#filter0_d_203_1873)">
<rect x="4" y="3" width="44" height="44" rx="8" fill="white" shape-rendering="crispEdges"/>
<rect x="4.25" y="3.25" width="43.5" height="43.5" rx="7.75" stroke="black" stroke-opacity="0.1" stroke-width="0.5" shape-rendering="crispEdges"/>
<g clip-path="url(#clip0_203_1873)">
<path d="M32.375 13H19.625C16.5184 13 14 15.5184 14 18.625V31.375C14 34.4816 16.5184 37 19.625 37H32.375C35.4816 37 38 34.4816 38 31.375V18.625C38 15.5184 35.4816 13 32.375 13Z" fill="url(#paint0_radial_203_1873)"/>
<path d="M32.375 13H19.625C16.5184 13 14 15.5184 14 18.625V31.375C14 34.4816 16.5184 37 19.625 37H32.375C35.4816 37 38 34.4816 38 31.375V18.625C38 15.5184 35.4816 13 32.375 13Z" fill="url(#paint1_radial_203_1873)"/>
<path d="M26.0008 15.625C23.4548 15.625 23.1352 15.6362 22.1353 15.6816C21.1372 15.7274 20.4559 15.8853 19.8598 16.1172C19.2432 16.3566 18.7201 16.677 18.1991 17.1982C17.6775 17.7194 17.3572 18.2424 17.117 18.8588C16.8845 19.4551 16.7263 20.1366 16.6814 21.1342C16.6367 22.1342 16.625 22.4539 16.625 25.0001C16.625 27.5463 16.6363 27.8648 16.6816 28.8647C16.7276 29.8628 16.8855 30.5441 17.1172 31.1402C17.3568 31.7568 17.6772 32.2799 18.1984 32.8009C18.7194 33.3225 19.2424 33.6436 19.8586 33.883C20.4552 34.1148 21.1365 34.2728 22.1344 34.3186C23.1344 34.364 23.4538 34.3752 25.9997 34.3752C28.5461 34.3752 28.8646 34.364 29.8646 34.3186C30.8626 34.2728 31.5447 34.1148 32.1412 33.883C32.7576 33.6436 33.2799 33.3225 33.8007 32.8009C34.3223 32.2799 34.6425 31.7568 34.8828 31.1404C35.1133 30.5441 35.2715 29.8626 35.3184 28.8649C35.3633 27.865 35.375 27.5463 35.375 25.0001C35.375 22.4539 35.3633 22.1344 35.3184 21.1344C35.2715 20.1363 35.1133 19.4552 34.8828 18.8591C34.6425 18.2424 34.3223 17.7194 33.8007 17.1982C33.2793 16.6768 32.7578 16.3564 32.1406 16.1173C31.543 15.8853 30.8613 15.7273 29.8632 15.6816C28.8632 15.6362 28.5448 15.625 25.9979 15.625H26.0008ZM25.1598 17.3145C25.4095 17.3141 25.688 17.3145 26.0008 17.3145C28.5041 17.3145 28.8007 17.3235 29.7892 17.3684C30.7032 17.4102 31.1994 17.5629 31.5298 17.6913C31.9674 17.8611 32.2793 18.0643 32.6072 18.3925C32.9353 18.7206 33.1384 19.0331 33.3088 19.4706C33.4371 19.8006 33.59 20.2968 33.6316 21.2108C33.6765 22.1991 33.6863 22.4959 33.6863 24.9979C33.6863 27.4999 33.6765 27.7968 33.6316 28.7851C33.5898 29.6991 33.4371 30.1952 33.3088 30.5253C33.1389 30.9629 32.9353 31.2744 32.6072 31.6023C32.2791 31.9305 31.9676 32.1335 31.5298 32.3035C31.1997 32.4324 30.7032 32.5848 29.7892 32.6266C28.8009 32.6715 28.5041 32.6812 26.0008 32.6812C23.4975 32.6812 23.2008 32.6715 22.2126 32.6266C21.2985 32.5844 20.8024 32.4317 20.4717 32.3033C20.0342 32.1333 19.7217 31.9303 19.3935 31.6022C19.0654 31.274 18.8623 30.9623 18.692 30.5246C18.5637 30.1945 18.4108 29.6984 18.3691 28.7843C18.3242 27.796 18.3152 27.4992 18.3152 24.9956C18.3152 22.492 18.3242 22.1968 18.3691 21.2085C18.4109 20.2944 18.5637 19.7983 18.692 19.4678C18.862 19.0303 19.0654 18.7178 19.3936 18.3897C19.7218 18.0616 20.0342 17.8584 20.4717 17.6882C20.8022 17.5592 21.2985 17.4069 22.2126 17.3649C23.0774 17.3258 23.4126 17.3141 25.1598 17.3121V17.3145ZM31.0052 18.8711C30.3841 18.8711 29.8802 19.3745 29.8802 19.9957C29.8802 20.6168 30.3841 21.1207 31.0052 21.1207C31.6263 21.1207 32.1302 20.6168 32.1302 19.9957C32.1302 19.3746 31.6263 18.8707 31.0052 18.8707V18.8711ZM26.0008 20.1856C23.3421 20.1856 21.1864 22.3413 21.1864 25.0001C21.1864 27.6589 23.3421 29.8136 26.0008 29.8136C28.6597 29.8136 30.8146 27.6589 30.8146 25.0001C30.8146 22.3413 28.6595 20.1856 26.0007 20.1856H26.0008ZM26.0008 21.875C27.7267 21.875 29.1259 23.2741 29.1259 25.0001C29.1259 26.7259 27.7267 28.1252 26.0008 28.1252C24.275 28.1252 22.8759 26.7259 22.8759 25.0001C22.8759 23.2741 24.2749 21.875 26.0008 21.875Z" fill="white"/>
</g>
</g>
<defs>
<filter id="filter0_d_203_1873" x="0" y="0" width="52" height="52" filterUnits="userSpaceOnUse" color-interpolation-filters="sRGB">
<feFlood flood-opacity="0" result="BackgroundImageFix"/>
<feColorMatrix in="SourceAlpha" type="matrix" values="0 0 0 0 0 0 0 0 0 0 0 0 0 0 0 0 0 0 127 0" result="hardAlpha"/>
<feOffset dy="1"/>
<feGaussianBlur stdDeviation="2"/>
<feComposite in2="hardAlpha" operator="out"/>
<feColorMatrix type="matrix" values="0 0 0 0 0 0 0 0 0 0 0 0 0 0 0 0 0 0 0.1 0"/>
<feBlend mode="normal" in2="BackgroundImageFix" result="effect1_dropShadow_203_1873"/>
<feBlend mode="normal" in="SourceGraphic" in2="effect1_dropShadow_203_1873" result="shape"/>
</filter>
<radialGradient id="paint0_radial_203_1873" cx="0" cy="0" r="1" gradientUnits="userSpaceOnUse" gradientTransform="translate(20.375 38.8485) rotate(-90) scale(23.7858 22.1227)">
<stop stop-color="#FFDD55"/>
<stop offset="0.1" stop-color="#FFDD55"/>
<stop offset="0.5" stop-color="#FF543E"/>
<stop offset="1" stop-color="#C837AB"/>
</radialGradient>
<radialGradient id="paint1_radial_203_1873" cx="0" cy="0" r="1" gradientUnits="userSpaceOnUse" gradientTransform="translate(9.97991 14.7288) rotate(78.681) scale(10.6324 43.827)">
<stop stop-color="#3771C8"/>
<stop offset="0.128" stop-color="#3771C8"/>
<stop offset="1" stop-color="#6600FF" stop-opacity="0"/>
</radialGradient>
<clipPath id="clip0_203_1873">
<rect width="24" height="24" fill="white" transform="translate(14 13)"/>
</clipPath>
</defs>
</svg>
