<svg width="24" height="24" viewBox="0 0 24 24" fill="none" xmlns="http://www.w3.org/2000/svg">
<path fill-rule="evenodd" clip-rule="evenodd" d="M21.34 11.9999C21.34 7.31951 17.6911 2.65991 12 2.65991C7.03643 2.65991 4.78082 6.61234 3.96632 8.22533L3.92864 8.29995H7.19999C7.47614 8.29995 7.69999 8.52381 7.69999 8.79995C7.69999 9.07609 7.47614 9.29995 7.19999 9.29995H2.39999C2.12385 9.29995 1.89999 9.07609 1.89999 8.79995V3.99995C1.89999 3.72381 2.12385 3.49995 2.39999 3.49995C2.67614 3.49995 2.89999 3.72381 2.89999 3.99995V8.11851L3.07367 7.77457C3.89944 6.13927 6.40356 1.65991 12 1.65991C18.3138 1.65991 22.34 6.84031 22.34 11.9999C22.34 17.1595 18.3138 22.3399 12 22.3399C8.97352 22.3399 6.46026 21.1439 4.67073 19.3231C3.71155 18.3471 2.96179 17.1934 2.45047 15.9509C2.34537 15.6956 2.46719 15.4034 2.72255 15.2983C2.97791 15.1932 3.27012 15.315 3.37521 15.5704C3.83885 16.6969 4.51798 17.741 5.38394 18.6221C6.993 20.2593 9.2523 21.3399 12 21.3399C17.6911 21.3399 21.34 16.6803 21.34 11.9999ZM2.89999 8.247V8.29995H3.00485L2.89999 8.247ZM12 6.69997C12.2761 6.69997 12.5 6.92383 12.5 7.19997V11.7929L15.5535 14.8464C15.7488 15.0417 15.7488 15.3583 15.5535 15.5535C15.3583 15.7488 15.0417 15.7488 14.8464 15.5535L11.6464 12.3535C11.5527 12.2598 11.5 12.1326 11.5 12V7.19997C11.5 6.92383 11.7239 6.69997 12 6.69997Z" fill="white"/>
</svg>
