<svg width="52" height="52" viewBox="0 0 52 52" fill="none" xmlns="http://www.w3.org/2000/svg">
<g filter="url(#filter0_d_203_1900)">
<rect x="4" y="3" width="44" height="44" rx="8" fill="white" shape-rendering="crispEdges"/>
<rect x="4.25" y="3.25" width="43.5" height="43.5" rx="7.75" stroke="black" stroke-opacity="0.1" stroke-width="0.5" shape-rendering="crispEdges"/>
<g clip-path="url(#clip0_203_1900)">
<path d="M32.375 13H19.625C16.5184 13 14 15.5184 14 18.625V31.375C14 34.4816 16.5184 37 19.625 37H32.375C35.4816 37 38 34.4816 38 31.375V18.625C38 15.5184 35.4816 13 32.375 13Z" fill="white"/>
<path d="M32.375 13H19.625C16.5184 13 14 15.5184 14 18.625V31.375C14 34.4816 16.5184 37 19.625 37H32.375C35.4816 37 38 34.4816 38 31.375V18.625C38 15.5184 35.4816 13 32.375 13Z" fill="#0A66C2"/>
<path d="M31.317 33.408H34.0611C34.1605 33.408 34.2559 33.3685 34.3262 33.2982C34.3965 33.2279 34.4361 33.1325 34.4361 33.0331L34.4375 27.2354C34.4375 24.2051 33.7845 21.8759 30.2433 21.8759C28.8972 21.8258 27.6277 22.5198 26.9427 23.6785C26.9393 23.6841 26.9342 23.6885 26.9281 23.691C26.9221 23.6934 26.9154 23.6938 26.909 23.6921C26.9027 23.6904 26.8971 23.6867 26.8931 23.6815C26.8891 23.6763 26.8869 23.67 26.8869 23.6634V22.5306C26.8869 22.4312 26.8474 22.3358 26.777 22.2655C26.7067 22.1951 26.6113 22.1556 26.5119 22.1556H23.9078C23.8083 22.1556 23.7129 22.1951 23.6426 22.2655C23.5723 22.3358 23.5328 22.4312 23.5328 22.5306V33.0325C23.5328 33.132 23.5723 33.2273 23.6426 33.2977C23.7129 33.368 23.8083 33.4075 23.9078 33.4075H26.6517C26.7511 33.4075 26.8465 33.368 26.9168 33.2977C26.9871 33.2273 27.0267 33.132 27.0267 33.0325V27.8413C27.0267 26.3734 27.3051 24.9519 29.1249 24.9519C30.9188 24.9519 30.942 26.6315 30.942 27.9363V33.033C30.942 33.1324 30.9815 33.2278 31.0519 33.2981C31.1222 33.3685 31.2176 33.408 31.317 33.408ZM17.5625 18.5901C17.5625 19.7024 18.4782 20.6176 19.5905 20.6176C20.7026 20.6175 21.6177 19.7017 21.6177 18.5897C21.6175 17.4776 20.7023 16.5625 19.5901 16.5625C18.4777 16.5625 17.5625 17.4779 17.5625 18.5901ZM18.2149 33.408H20.9624C21.0619 33.408 21.1573 33.3685 21.2276 33.2981C21.2979 33.2278 21.3374 33.1324 21.3374 33.033V22.5306C21.3374 22.4312 21.2979 22.3358 21.2276 22.2655C21.1573 22.1951 21.0619 22.1556 20.9624 22.1556H18.2149C18.1155 22.1556 18.0201 22.1951 17.9497 22.2655C17.8794 22.3358 17.8399 22.4312 17.8399 22.5306V33.033C17.8399 33.1324 17.8794 33.2278 17.9497 33.2981C18.0201 33.3685 18.1155 33.408 18.2149 33.408Z" fill="white"/>
</g>
</g>
<defs>
<filter id="filter0_d_203_1900" x="0" y="0" width="52" height="52" filterUnits="userSpaceOnUse" color-interpolation-filters="sRGB">
<feFlood flood-opacity="0" result="BackgroundImageFix"/>
<feColorMatrix in="SourceAlpha" type="matrix" values="0 0 0 0 0 0 0 0 0 0 0 0 0 0 0 0 0 0 127 0" result="hardAlpha"/>
<feOffset dy="1"/>
<feGaussianBlur stdDeviation="2"/>
<feComposite in2="hardAlpha" operator="out"/>
<feColorMatrix type="matrix" values="0 0 0 0 0 0 0 0 0 0 0 0 0 0 0 0 0 0 0.1 0"/>
<feBlend mode="normal" in2="BackgroundImageFix" result="effect1_dropShadow_203_1900"/>
<feBlend mode="normal" in="SourceGraphic" in2="effect1_dropShadow_203_1900" result="shape"/>
</filter>
<clipPath id="clip0_203_1900">
<rect width="24" height="24" fill="white" transform="translate(14 13)"/>
</clipPath>
</defs>
</svg>
