<svg width="18" height="18" viewBox="0 0 18 18" fill="none" xmlns="http://www.w3.org/2000/svg">
<path fill-rule="evenodd" clip-rule="evenodd" d="M14.1 7.4C14.1 10.8242 11.3242 13.6 7.90001 13.6C4.47585 13.6 1.70001 10.8242 1.70001 7.4C1.70001 3.97583 4.47585 1.2 7.90001 1.2C11.3242 1.2 14.1 3.97583 14.1 7.4ZM12.6254 12.8325C11.3609 13.9334 9.70829 14.6 7.90001 14.6C3.92356 14.6 0.700012 11.3764 0.700012 7.4C0.700012 3.42355 3.92356 0.199997 7.90001 0.199997C11.8765 0.199997 15.1 3.42355 15.1 7.4C15.1 9.20827 14.4334 10.8609 13.3325 12.1254L17.8536 16.6464C18.0488 16.8417 18.0488 17.1583 17.8536 17.3536C17.6583 17.5488 17.3417 17.5488 17.1465 17.3536L12.6254 12.8325Z" fill="#00AEE7"/>
</svg>
