<svg width="320" height="326" viewBox="0 0 320 326" fill="none" xmlns="http://www.w3.org/2000/svg">
<path fill-rule="evenodd" clip-rule="evenodd" d="M30.1572 53.8918C30.0161 53.9032 29.9367 53.9086 29.7918 53.8268C29.5116 53.6687 29.2725 53.0934 29.545 52.7734C29.6889 52.6045 29.8441 52.593 30.02 52.5629C30.1128 52.547 30.3091 52.5916 30.3925 52.6406C30.4918 52.6989 30.5796 52.75 30.6461 52.8775C30.9197 53.4024 30.4926 53.8918 30.1572 53.8918Z" fill="white"/>
<path fill-rule="evenodd" clip-rule="evenodd" d="M37.2923 52.553C37.1512 52.5644 37.0719 52.5698 36.9269 52.488C36.6467 52.33 36.4076 51.7546 36.6801 51.4347C36.824 51.2657 36.9792 51.2542 37.1551 51.2241C37.2479 51.2082 37.4442 51.2528 37.5276 51.3018C37.627 51.3601 37.7147 51.4112 37.7812 51.5387C38.0549 52.0636 37.6278 52.553 37.2923 52.553Z" fill="white"/>
<path fill-rule="evenodd" clip-rule="evenodd" d="M34.1494 68.752C34.0083 68.7634 33.9289 68.7687 33.7839 68.687C33.5037 68.5289 33.2647 67.9536 33.5371 67.6336C33.681 67.4646 33.8362 67.4531 34.0121 67.423C34.1049 67.4071 34.3012 67.4517 34.3846 67.5007C34.484 67.559 34.5717 67.6102 34.6382 67.7376C34.9119 68.2625 34.4848 68.752 34.1494 68.752Z" fill="white"/>
<path fill-rule="evenodd" clip-rule="evenodd" d="M308.258 116.769C308.117 116.781 308.037 116.786 307.892 116.704C307.612 116.546 307.373 115.971 307.645 115.651C307.789 115.482 307.944 115.471 308.12 115.44C308.213 115.424 308.41 115.469 308.493 115.518C308.592 115.576 308.68 115.628 308.746 115.755C309.02 116.28 308.593 116.769 308.258 116.769Z" fill="white"/>
<path fill-rule="evenodd" clip-rule="evenodd" d="M191.904 185.805C191.763 185.817 191.683 185.822 191.538 185.74C191.258 185.582 191.019 185.007 191.292 184.687C191.435 184.518 191.591 184.506 191.767 184.476C191.859 184.46 192.056 184.505 192.139 184.554C192.238 184.612 192.326 184.663 192.393 184.791C192.666 185.316 192.239 185.805 191.904 185.805Z" fill="white"/>
<path fill-rule="evenodd" clip-rule="evenodd" d="M0.73217 224.032C0.591078 224.043 0.511692 224.048 0.366725 223.967C0.0865377 223.808 -0.152527 223.233 0.119922 222.913C0.263831 222.744 0.41903 222.733 0.594964 222.703C0.687744 222.687 0.884045 222.731 0.967446 222.78C1.0668 222.839 1.15455 222.89 1.22103 223.017C1.4947 223.542 1.0676 224.032 0.73217 224.032Z" fill="white"/>
<path fill-rule="evenodd" clip-rule="evenodd" d="M315.392 111.218C315.251 111.229 315.172 111.235 315.027 111.153C314.747 110.995 314.508 110.419 314.78 110.1C314.924 109.931 315.079 109.919 315.255 109.889C315.348 109.873 315.544 109.918 315.628 109.967C315.727 110.025 315.815 110.076 315.881 110.204C316.155 110.728 315.728 111.218 315.392 111.218Z" fill="white"/>
<path fill-rule="evenodd" clip-rule="evenodd" d="M199.039 180.254C198.897 180.265 198.818 180.271 198.673 180.189C198.393 180.031 198.154 179.455 198.426 179.135C198.57 178.966 198.725 178.955 198.901 178.925C198.994 178.909 199.19 178.954 199.274 179.003C199.373 179.061 199.461 179.112 199.527 179.239C199.801 179.764 199.374 180.254 199.039 180.254Z" fill="white"/>
<path fill-rule="evenodd" clip-rule="evenodd" d="M7.8673 218.48C7.7262 218.492 7.64682 218.497 7.50185 218.415C7.22166 218.257 6.9826 217.682 7.25505 217.362C7.39896 217.193 7.55416 217.181 7.73009 217.151C7.82287 217.135 8.01917 217.18 8.10257 217.229C8.20193 217.287 8.28968 217.338 8.35615 217.466C8.62982 217.991 8.20272 218.48 7.8673 218.48Z" fill="white"/>
<path fill-rule="evenodd" clip-rule="evenodd" d="M85.572 92.9375C85.4309 92.9489 85.3516 92.9543 85.2066 92.8725C84.9264 92.7144 84.6873 92.1391 84.9598 91.8192C85.1037 91.6502 85.2589 91.6387 85.4348 91.6086C85.5276 91.5927 85.7239 91.6373 85.8073 91.6863C85.9067 91.7446 85.9944 91.7957 86.0609 91.9232C86.3346 92.4481 85.9075 92.9375 85.572 92.9375Z" fill="white"/>
<path fill-rule="evenodd" clip-rule="evenodd" d="M132.92 54.5612C132.779 54.5726 132.699 54.578 132.554 54.4962C132.274 54.3381 132.035 53.7628 132.308 53.4428C132.452 53.2739 132.607 53.2624 132.783 53.2322C132.876 53.2163 133.072 53.261 133.155 53.31C133.255 53.3683 133.342 53.4194 133.409 53.5469C133.682 54.0718 133.255 54.5612 132.92 54.5612Z" fill="white"/>
<path fill-rule="evenodd" clip-rule="evenodd" d="M185.901 77.3328C185.76 77.3442 185.681 77.3496 185.536 77.2678C185.255 77.1097 185.016 76.5344 185.289 76.2144C185.433 76.0454 185.588 76.034 185.764 76.0038C185.857 75.9879 186.053 76.0326 186.136 76.0815C186.236 76.1399 186.323 76.191 186.39 76.3185C186.664 76.8434 186.236 77.3328 185.901 77.3328Z" fill="white"/>
<path fill-rule="evenodd" clip-rule="evenodd" d="M187.209 48.2337C187.068 48.2451 186.989 48.2505 186.844 48.1687C186.564 48.0106 186.325 47.4353 186.597 47.1153C186.741 46.9463 186.896 46.9349 187.072 46.9047C187.165 46.8888 187.361 46.9335 187.445 46.9824C187.544 47.0408 187.632 47.0919 187.698 47.2194C187.972 47.7443 187.545 48.2337 187.209 48.2337Z" fill="white"/>
<path fill-rule="evenodd" clip-rule="evenodd" d="M171.341 132.157C171.2 132.168 171.121 132.173 170.976 132.092C170.695 131.934 170.456 131.358 170.729 131.038C170.873 130.869 171.028 130.858 171.204 130.828C171.297 130.812 171.493 130.857 171.576 130.905C171.676 130.964 171.763 131.015 171.83 131.142C172.104 131.667 171.677 132.157 171.341 132.157Z" fill="white"/>
<path fill-rule="evenodd" clip-rule="evenodd" d="M267.121 109.469C266.98 109.48 266.901 109.486 266.756 109.404C266.476 109.246 266.237 108.671 266.509 108.351C266.653 108.182 266.808 108.17 266.984 108.14C267.077 108.124 267.273 108.169 267.357 108.218C267.456 108.276 267.544 108.327 267.61 108.455C267.884 108.98 267.457 109.469 267.121 109.469Z" fill="white"/>
<path fill-rule="evenodd" clip-rule="evenodd" d="M319.424 217.142C319.283 217.153 319.203 217.158 319.058 217.077C318.778 216.919 318.539 216.343 318.812 216.023C318.956 215.854 319.111 215.843 319.287 215.813C319.379 215.797 319.576 215.841 319.659 215.89C319.758 215.949 319.846 216 319.913 216.127C320.186 216.652 319.759 217.142 319.424 217.142Z" fill="white"/>
<path fill-rule="evenodd" clip-rule="evenodd" d="M158.683 248.816C158.542 248.827 158.463 248.832 158.318 248.751C158.038 248.593 157.799 248.017 158.071 247.697C158.215 247.528 158.37 247.517 158.546 247.487C158.639 247.471 158.835 247.515 158.919 247.564C159.018 247.623 159.106 247.674 159.172 247.801C159.446 248.326 159.019 248.816 158.683 248.816Z" fill="white"/>
<path fill-rule="evenodd" clip-rule="evenodd" d="M107.687 312.995C107.546 313.006 107.467 313.011 107.322 312.93C107.042 312.772 106.803 312.196 107.075 311.876C107.219 311.707 107.374 311.696 107.55 311.666C107.643 311.65 107.839 311.694 107.923 311.743C108.022 311.802 108.11 311.853 108.176 311.98C108.45 312.505 108.023 312.995 107.687 312.995Z" fill="white"/>
<path fill-rule="evenodd" clip-rule="evenodd" d="M172.649 20.5424C172.508 20.5539 172.429 20.5592 172.284 20.4774C172.004 20.3194 171.765 19.744 172.037 19.4241C172.181 19.2551 172.336 19.2436 172.512 19.2135C172.605 19.1976 172.801 19.2422 172.885 19.2912C172.984 19.3495 173.072 19.4006 173.138 19.5281C173.412 20.053 172.985 20.5424 172.649 20.5424Z" fill="white"/>
<path fill-rule="evenodd" clip-rule="evenodd" d="M233.982 35.2161C233.841 35.2275 233.762 35.2329 233.617 35.1511C233.336 34.993 233.097 34.4177 233.37 34.0977C233.514 33.9287 233.669 33.9173 233.845 33.8871C233.938 33.8712 234.134 33.9159 234.217 33.9648C234.317 34.0232 234.404 34.0743 234.471 34.2018C234.745 34.7267 234.317 35.2161 233.982 35.2161Z" fill="white"/>
<path fill-rule="evenodd" clip-rule="evenodd" d="M256.021 183.03C255.879 183.041 255.8 183.046 255.655 182.965C255.375 182.807 255.136 182.231 255.408 181.911C255.552 181.742 255.707 181.731 255.883 181.701C255.976 181.685 256.172 181.729 256.256 181.778C256.355 181.837 256.443 181.888 256.509 182.015C256.783 182.54 256.356 183.03 256.021 183.03Z" fill="white"/>
<path fill-rule="evenodd" clip-rule="evenodd" d="M315.392 118.108C315.251 118.12 315.172 118.125 315.027 118.043C314.747 117.885 314.508 117.31 314.78 116.99C314.924 116.821 315.079 116.809 315.255 116.779C315.348 116.763 315.544 116.808 315.628 116.857C315.727 116.915 315.815 116.966 315.881 117.094C316.155 117.619 315.728 118.108 315.392 118.108Z" fill="white"/>
<path fill-rule="evenodd" clip-rule="evenodd" d="M199.039 187.144C198.897 187.155 198.818 187.161 198.673 187.079C198.393 186.921 198.154 186.345 198.426 186.026C198.57 185.857 198.725 185.845 198.901 185.815C198.994 185.799 199.19 185.844 199.274 185.893C199.373 185.951 199.461 186.002 199.527 186.13C199.801 186.654 199.374 187.144 199.039 187.144Z" fill="white"/>
<path fill-rule="evenodd" clip-rule="evenodd" d="M7.8673 225.37C7.7262 225.382 7.64682 225.387 7.50185 225.305C7.22166 225.147 6.9826 224.572 7.25505 224.252C7.39896 224.083 7.55416 224.072 7.73009 224.041C7.82287 224.025 8.01917 224.07 8.10257 224.119C8.20193 224.177 8.28968 224.229 8.35615 224.356C8.62982 224.881 8.20272 225.37 7.8673 225.37Z" fill="white"/>
<path fill-rule="evenodd" clip-rule="evenodd" d="M220.02 185.136C219.879 185.147 219.8 185.152 219.655 185.071C219.375 184.913 219.135 184.337 219.408 184.017C219.552 183.848 219.707 183.837 219.883 183.807C219.976 183.791 220.172 183.835 220.255 183.884C220.355 183.943 220.443 183.994 220.509 184.121C220.783 184.646 220.356 185.136 220.02 185.136Z" fill="white"/>
<path fill-rule="evenodd" clip-rule="evenodd" d="M28.8489 223.362C28.7078 223.374 28.6284 223.379 28.4834 223.297C28.2033 223.139 27.9642 222.564 28.2366 222.244C28.3806 222.075 28.5358 222.063 28.7117 222.033C28.8045 222.017 29.0008 222.062 29.0842 222.111C29.1835 222.169 29.2713 222.22 29.3377 222.348C29.6114 222.873 29.1843 223.362 28.8489 223.362Z" fill="white"/>
<path fill-rule="evenodd" clip-rule="evenodd" d="M74.4782 149.81C74.3371 149.822 74.2577 149.827 74.1127 149.745C73.8326 149.587 73.5935 149.012 73.866 148.692C74.0099 148.523 74.1651 148.512 74.341 148.481C74.4338 148.466 74.6301 148.51 74.7135 148.559C74.8128 148.618 74.9006 148.669 74.9671 148.796C75.2407 149.321 74.8136 149.81 74.4782 149.81Z" fill="white"/>
<path fill-rule="evenodd" clip-rule="evenodd" d="M95.4241 166.194C95.283 166.206 95.2036 166.211 95.0587 166.129C94.7785 165.971 94.5394 165.396 94.8119 165.076C94.9558 164.907 95.111 164.896 95.2869 164.865C95.3797 164.85 95.576 164.894 95.6594 164.943C95.7587 165.002 95.8465 165.053 95.913 165.18C96.1866 165.705 95.7595 166.194 95.4241 166.194Z" fill="white"/>
<path fill-rule="evenodd" clip-rule="evenodd" d="M73.1699 197.758C73.0288 197.77 72.9494 197.775 72.8044 197.693C72.5242 197.535 72.2852 196.96 72.5576 196.64C72.7015 196.471 72.8567 196.46 73.0327 196.429C73.1255 196.414 73.3218 196.458 73.4052 196.507C73.5045 196.566 73.5923 196.617 73.6587 196.744C73.9324 197.269 73.5053 197.758 73.1699 197.758Z" fill="white"/>
<path fill-rule="evenodd" clip-rule="evenodd" d="M120.633 224.733C120.492 224.744 120.413 224.749 120.268 224.668C119.988 224.51 119.749 223.934 120.021 223.614C120.165 223.445 120.32 223.434 120.496 223.404C120.589 223.388 120.785 223.432 120.868 223.481C120.968 223.54 121.056 223.591 121.122 223.718C121.396 224.243 120.969 224.733 120.633 224.733Z" fill="white"/>
<path fill-rule="evenodd" clip-rule="evenodd" d="M69.9552 164.856C69.8141 164.867 69.7347 164.873 69.5898 164.791C69.3096 164.633 69.0705 164.058 69.3429 163.738C69.4869 163.569 69.6421 163.557 69.818 163.527C69.9108 163.511 70.1071 163.556 70.1905 163.605C70.2898 163.663 70.3776 163.714 70.4441 163.842C70.7177 164.367 70.2906 164.856 69.9552 164.856Z" fill="white"/>
<path fill-rule="evenodd" clip-rule="evenodd" d="M192.558 196.42C192.417 196.431 192.337 196.436 192.192 196.355C191.912 196.197 191.673 195.621 191.946 195.301C192.089 195.132 192.245 195.121 192.421 195.091C192.513 195.075 192.71 195.119 192.793 195.168C192.892 195.227 192.98 195.278 193.047 195.405C193.32 195.93 192.893 196.42 192.558 196.42Z" fill="white"/>
<path fill-rule="evenodd" clip-rule="evenodd" d="M1.38649 234.646C1.2454 234.658 1.16601 234.663 1.02104 234.581C0.740856 234.423 0.501792 233.848 0.77424 233.528C0.91815 233.359 1.07335 233.347 1.24928 233.317C1.34206 233.301 1.53836 233.346 1.62176 233.395C1.72112 233.453 1.80887 233.504 1.87535 233.632C2.14901 234.157 1.72192 234.646 1.38649 234.646Z" fill="white"/>
<path d="M46.9291 238.422C47.4182 238.367 47.3636 238.016 47.0672 237.674C46.4973 237.016 45.7126 236.739 45.1505 236.696C44.7845 236.667 44.537 236.839 44.4433 237.209C44.3715 237.492 44.4648 237.896 44.6888 238.316C44.9951 238.892 45.5377 239.544 45.7171 239.871C45.7247 239.885 45.7329 239.904 45.7409 239.927C45.636 239.857 45.5184 239.759 45.3898 239.656C44.7519 239.147 44.0047 238.378 43.5923 238.119C43.4813 238.049 42.77 237.59 42.4663 237.555C42.1995 237.525 42.0289 237.655 41.9369 237.811C41.8221 238.006 41.794 238.241 41.8643 238.498C41.9703 238.886 42.4093 239.385 42.5411 239.571C43.0716 240.315 43.642 241.009 44.1731 241.744C44.3926 242.048 44.6056 242.359 44.805 242.685C44.8479 242.755 45.0469 243.036 45.1854 243.324C45.195 243.344 45.2048 243.366 45.2142 243.39C45.1312 243.359 45.0504 243.305 44.9711 243.244C44.6427 242.993 44.3536 242.601 44.1356 242.359C43.5247 241.68 42.9412 240.955 42.3169 240.284C41.8855 239.82 41.4356 239.38 40.9412 239.002C40.6561 238.773 39.8802 238.201 39.2572 238.016C38.7704 237.872 38.3604 237.983 38.1086 238.328C37.9064 238.603 37.8824 238.999 37.9936 239.432C38.1488 240.036 38.6183 240.736 38.8099 240.988C39.1752 241.456 39.5685 241.903 39.991 242.319C40.5872 242.907 41.2295 243.443 41.7864 244.068C42.0091 244.318 42.2218 244.578 42.4147 244.857C42.5096 244.997 42.8594 245.469 43.1059 245.948C43.1732 246.079 43.1871 246.259 43.2166 246.385C43.1769 246.376 43.1358 246.364 43.0953 246.353C42.8776 246.298 42.6642 246.181 42.5171 246.091C41.9789 245.76 41.5357 245.445 41.1209 245.08C40.7148 244.723 40.3381 244.317 39.9233 243.805L38.887 242.685C38.2509 241.965 37.486 242.854 38.0861 243.538L39.0958 244.649C39.5723 245.201 40.0049 245.635 40.466 246.017C40.9337 246.404 41.4291 246.739 42.0311 247.086C42.2931 247.237 42.6986 247.426 43.0796 247.472C43.4404 247.515 43.7807 247.44 44.0359 247.206C44.2666 246.994 44.3704 246.625 44.2507 246.152C44.0792 245.473 43.3945 244.426 43.246 244.193C42.9396 243.7 42.5849 243.251 42.2054 242.825C41.7015 242.258 41.1659 241.717 40.623 241.193C40.2762 240.859 39.919 240.542 39.5971 240.186C39.4966 240.076 39.302 239.846 39.1328 239.578C39.0363 239.425 38.9419 239.263 38.887 239.104C38.8691 239.052 38.8508 239.003 38.8445 238.955C38.8329 238.866 38.907 238.895 38.9785 238.888C39.1331 238.907 39.306 238.966 39.4772 239.044C39.9062 239.241 40.3264 239.543 40.5138 239.681C40.9731 240.034 41.3925 240.442 41.7909 240.876C42.4076 241.549 42.9758 242.282 43.5756 242.966C43.8638 243.295 44.2727 243.846 44.7244 244.119C44.9986 244.284 45.2894 244.356 45.5842 244.296C45.9477 244.223 46.0888 243.974 46.1071 243.65C46.1166 243.481 46.071 243.267 45.9833 243.047C45.834 242.673 45.5595 242.263 45.505 242.171C45.2981 241.821 45.077 241.486 44.8479 241.159C44.3596 240.462 43.8343 239.803 43.3412 239.104C43.8297 239.476 44.588 240.246 45.1785 240.643C45.4927 240.854 45.7798 240.966 45.9892 240.964C46.3592 240.96 46.5368 240.76 46.6201 240.512C46.6637 240.382 46.6777 240.223 46.654 240.055C46.62 239.813 46.5099 239.543 46.4216 239.389C46.2588 239.106 45.8167 238.58 45.4921 238.071C45.3852 237.903 45.1785 237.674 45.2351 237.589C45.2917 237.504 46.3597 238.188 46.3597 238.188C46.4214 238.229 46.5164 238.299 46.6077 238.346C46.6298 238.362 46.6545 238.377 46.6817 238.389C46.7542 238.422 46.8833 238.427 46.9291 238.422Z" fill="white"/>
<path d="M117.324 71.4221C117.813 71.3666 117.759 71.0164 117.462 70.6741C116.892 70.0159 116.108 69.7393 115.545 69.6957C115.179 69.6674 114.932 69.8389 114.838 70.2089C114.767 70.4924 114.86 70.8959 115.084 71.3164C115.39 71.8917 115.933 72.544 116.112 72.8713C116.12 72.8851 116.128 72.9042 116.136 72.9267C116.031 72.857 115.913 72.7589 115.785 72.6562C115.147 72.1474 114.4 71.3785 113.987 71.1189C113.876 71.0494 113.165 70.5903 112.861 70.5555C112.595 70.5248 112.424 70.6548 112.332 70.8109C112.217 71.0056 112.189 71.2408 112.259 71.4979C112.365 71.8859 112.804 72.3848 112.936 72.5712C113.467 73.3151 114.037 74.0088 114.568 74.7441C114.788 75.048 115.001 75.3588 115.2 75.6845C115.243 75.7548 115.442 76.0356 115.58 76.3236C115.59 76.3437 115.6 76.3665 115.609 76.3903C115.526 76.3589 115.445 76.3046 115.366 76.2442C115.038 75.9934 114.749 75.6008 114.531 75.3591C113.92 74.6804 113.336 73.9549 112.712 73.2835C112.281 72.8197 111.831 72.3803 111.336 72.0016C111.051 71.7729 110.275 71.2008 109.652 71.0164C109.165 70.8723 108.755 70.9833 108.504 71.3275C108.301 71.6033 108.277 71.9986 108.389 72.4317C108.544 73.0365 109.013 73.736 109.205 73.9875C109.57 74.4557 109.964 74.9026 110.386 75.3194C110.982 75.9074 111.625 76.4427 112.181 77.0679C112.404 77.318 112.617 77.5775 112.81 77.8572C112.905 77.9965 113.254 78.4687 113.501 78.9478C113.568 79.0788 113.582 79.2591 113.612 79.3853C113.572 79.3764 113.531 79.3635 113.49 79.3532C113.273 79.2977 113.059 79.1813 112.912 79.0909C112.374 78.7598 111.931 78.4447 111.516 78.0801C111.11 77.7232 110.733 77.3171 110.318 76.8053L109.282 75.6845C108.646 74.9654 107.881 75.8535 108.481 76.5384L109.491 77.6495C109.967 78.2015 110.4 78.6352 110.861 79.0166C111.329 79.4036 111.824 79.7389 112.426 80.0859C112.688 80.2373 113.094 80.4258 113.475 80.4718C113.835 80.5154 114.176 80.44 114.431 80.2058C114.662 79.9942 114.765 79.6254 114.646 79.1515C114.474 78.4729 113.789 77.4259 113.641 77.1933C113.335 76.7003 112.98 76.2513 112.6 75.8246C112.096 75.258 111.561 74.7174 111.018 74.1934C110.671 73.8586 110.314 73.5421 109.992 73.186C109.892 73.0762 109.697 72.8465 109.528 72.5778C109.431 72.4246 109.337 72.2632 109.282 72.1041C109.264 72.0522 109.246 72.0032 109.24 71.9546C109.228 71.8657 109.302 71.895 109.373 71.8883C109.528 71.9072 109.701 71.9658 109.872 72.0443C110.301 72.2411 110.721 72.5428 110.909 72.681C111.368 73.0339 111.788 73.4415 112.186 73.8759C112.803 74.5485 113.371 75.2824 113.971 75.966C114.259 76.295 114.668 76.8462 115.119 77.1186C115.394 77.284 115.684 77.3555 115.979 77.2961C116.343 77.223 116.484 76.9743 116.502 76.6496C116.512 76.4812 116.466 76.2668 116.378 76.047C116.229 75.6728 115.955 75.2635 115.9 75.1712C115.693 74.8209 115.472 74.4857 115.243 74.1587C114.755 73.4618 114.229 72.8027 113.736 72.1042C114.225 72.4764 114.983 73.2463 115.574 73.6428C115.888 73.8538 116.175 73.9659 116.384 73.9639C116.754 73.9602 116.932 73.7599 117.015 73.5118C117.059 73.3821 117.073 73.2234 117.049 73.055C117.015 72.8135 116.905 72.5432 116.817 72.389C116.654 72.1055 116.212 71.58 115.887 71.0711C115.78 70.9034 115.574 70.6741 115.63 70.5889C115.687 70.5036 116.755 71.1881 116.755 71.1881C116.816 71.2288 116.911 71.2991 117.003 71.3462C117.025 71.3625 117.049 71.377 117.077 71.3893C117.149 71.4222 117.278 71.4273 117.324 71.4221Z" fill="white"/>
<path d="M259.636 139.417C260.125 139.361 260.071 139.011 259.774 138.669C259.204 138.011 258.42 137.734 257.858 137.691C257.492 137.662 257.244 137.834 257.15 138.204C257.079 138.487 257.172 138.891 257.396 139.311C257.702 139.886 258.245 140.539 258.424 140.866C258.432 140.88 258.44 140.899 258.448 140.921C258.343 140.852 258.226 140.754 258.097 140.651C257.459 140.142 256.712 139.373 256.299 139.114C256.188 139.044 255.477 138.585 255.173 138.55C254.907 138.52 254.736 138.65 254.644 138.806C254.529 139 254.501 139.236 254.571 139.493C254.677 139.881 255.117 140.38 255.248 140.566C255.779 141.31 256.349 142.004 256.88 142.739C257.1 143.043 257.313 143.354 257.512 143.679C257.555 143.75 257.754 144.03 257.893 144.318C257.902 144.338 257.912 144.361 257.921 144.385C257.838 144.354 257.758 144.299 257.678 144.239C257.35 143.988 257.061 143.596 256.843 143.354C256.232 142.675 255.648 141.95 255.024 141.278C254.593 140.814 254.143 140.375 253.648 139.996C253.363 139.768 252.587 139.196 251.964 139.011C251.478 138.867 251.068 138.978 250.816 139.322C250.614 139.598 250.59 139.993 250.701 140.426C250.856 141.031 251.325 141.731 251.517 141.982C251.882 142.451 252.276 142.897 252.698 143.314C253.294 143.902 253.937 144.437 254.494 145.063C254.716 145.313 254.929 145.572 255.122 145.852C255.217 145.991 255.567 146.464 255.813 146.943C255.88 147.074 255.894 147.254 255.924 147.38C255.884 147.371 255.843 147.358 255.803 147.348C255.585 147.293 255.371 147.176 255.224 147.086C254.686 146.755 254.243 146.439 253.828 146.075C253.422 145.718 253.045 145.312 252.63 144.8L251.594 143.679C250.958 142.96 250.193 143.848 250.793 144.533L251.803 145.644C252.279 146.196 252.712 146.63 253.173 147.011C253.641 147.398 254.136 147.734 254.738 148.081C255 148.232 255.406 148.421 255.787 148.467C256.148 148.51 256.488 148.435 256.743 148.201C256.974 147.989 257.078 147.62 256.958 147.146C256.786 146.468 256.102 145.421 255.953 145.188C255.647 144.695 255.292 144.246 254.913 143.819C254.409 143.253 253.873 142.712 253.33 142.188C252.983 141.853 252.626 141.537 252.304 141.181C252.204 141.071 252.009 140.841 251.84 140.573C251.744 140.419 251.649 140.258 251.594 140.099C251.576 140.047 251.558 139.998 251.552 139.949C251.54 139.861 251.614 139.89 251.686 139.883C251.84 139.902 252.013 139.961 252.184 140.039C252.613 140.236 253.034 140.538 253.221 140.676C253.68 141.029 254.1 141.436 254.498 141.871C255.115 142.543 255.683 143.277 256.283 143.961C256.571 144.29 256.98 144.841 257.432 145.113C257.706 145.279 257.997 145.35 258.291 145.291C258.655 145.218 258.796 144.969 258.814 144.644C258.824 144.476 258.778 144.262 258.69 144.042C258.541 143.668 258.267 143.258 258.212 143.166C258.005 142.816 257.784 142.481 257.555 142.153C257.067 141.457 256.542 140.798 256.048 140.099C256.537 140.471 257.295 141.241 257.886 141.638C258.2 141.849 258.487 141.961 258.696 141.959C259.066 141.955 259.244 141.755 259.327 141.507C259.371 141.377 259.385 141.218 259.361 141.05C259.327 140.808 259.217 140.538 259.129 140.384C258.966 140.1 258.524 139.575 258.199 139.066C258.092 138.898 257.886 138.669 257.942 138.584C257.999 138.498 259.067 139.183 259.067 139.183C259.129 139.224 259.224 139.294 259.315 139.341C259.337 139.357 259.362 139.372 259.389 139.384C259.461 139.417 259.591 139.422 259.636 139.417Z" fill="white"/>
<path d="M152.744 322.263C152.269 322.12 152.212 322.47 152.383 322.908C152.713 323.752 153.362 324.323 153.874 324.588C154.208 324.761 154.493 324.699 154.695 324.39C154.851 324.153 154.888 323.738 154.809 323.255C154.7 322.594 154.395 321.767 154.328 321.389C154.325 321.374 154.324 321.352 154.323 321.328C154.4 321.435 154.479 321.574 154.568 321.721C155.007 322.452 155.469 323.47 155.774 323.877C155.857 323.987 156.38 324.7 156.654 324.854C156.894 324.989 157.094 324.935 157.229 324.825C157.396 324.689 157.495 324.48 157.509 324.211C157.53 323.806 157.274 323.164 157.208 322.937C156.942 322.029 156.623 321.152 156.354 320.252C156.243 319.88 156.14 319.504 156.054 319.119C156.035 319.036 155.936 318.694 155.896 318.369C155.893 318.347 155.891 318.322 155.889 318.296C155.957 318.358 156.016 318.441 156.072 318.529C156.302 318.895 156.45 319.378 156.58 319.691C156.941 320.57 157.263 321.482 157.639 322.359C157.899 322.965 158.184 323.556 158.53 324.108C158.726 324.436 159.275 325.28 159.801 325.701C160.212 326.03 160.63 326.09 160.973 325.868C161.247 325.69 161.392 325.33 161.423 324.88C161.465 324.252 161.242 323.41 161.14 323.098C160.943 322.514 160.714 321.939 160.447 321.38C160.072 320.592 159.636 319.835 159.308 319.028C159.177 318.705 159.059 318.377 158.965 318.038C158.919 317.87 158.738 317.289 158.656 316.742C158.633 316.592 158.676 316.418 158.688 316.288C158.722 316.312 158.757 316.341 158.791 316.366C158.978 316.505 159.142 316.699 159.251 316.843C159.653 317.367 159.97 317.839 160.245 318.345C160.515 318.841 160.742 319.372 160.971 320.016L161.594 321.479C161.967 322.406 162.958 321.879 162.609 320.999L162.008 319.556C161.733 318.849 161.462 318.271 161.149 317.73C160.831 317.181 160.471 316.67 160.015 316.105C159.816 315.859 159.495 315.521 159.153 315.326C158.828 315.141 158.487 315.076 158.175 315.193C157.893 315.299 157.682 315.603 157.647 316.095C157.597 316.798 157.914 318.052 157.981 318.328C158.115 318.912 158.308 319.474 158.531 320.025C158.827 320.756 159.161 321.476 159.507 322.183C159.728 322.634 159.964 323.073 160.155 323.535C160.215 323.678 160.326 323.97 160.401 324.289C160.444 324.471 160.482 324.66 160.485 324.831C160.485 324.886 160.487 324.94 160.478 324.988C160.461 325.075 160.401 325.019 160.332 324.996C160.193 324.917 160.049 324.793 159.914 324.651C159.573 324.296 159.273 323.846 159.14 323.642C158.82 323.129 158.553 322.58 158.315 322.014C157.946 321.139 157.642 320.225 157.292 319.346C157.124 318.923 156.912 318.244 156.574 317.809C156.368 317.545 156.118 317.362 155.824 317.3C155.461 317.224 155.252 317.4 155.134 317.697C155.073 317.851 155.049 318.07 155.063 318.31C155.087 318.72 155.217 319.213 155.239 319.321C155.325 319.731 155.428 320.133 155.541 320.531C155.782 321.378 156.069 322.204 156.315 323.055C155.973 322.512 155.501 321.489 155.071 320.882C154.843 320.559 154.609 320.34 154.412 320.258C154.064 320.114 153.836 320.231 153.681 320.43C153.6 320.534 153.538 320.677 153.508 320.844C153.465 321.084 153.484 321.381 153.519 321.56C153.584 321.89 153.835 322.559 153.981 323.164C154.029 323.364 154.151 323.661 154.072 323.718C153.993 323.776 153.205 322.709 153.205 322.709C153.16 322.646 153.093 322.543 153.022 322.462C153.006 322.438 152.987 322.415 152.966 322.392C152.908 322.333 152.789 322.276 152.744 322.263Z" fill="white"/>
<path d="M204.493 7.12875C204.018 6.98564 203.961 7.33528 204.132 7.7739C204.462 8.61732 205.111 9.18914 205.623 9.45404C205.957 9.62651 206.242 9.56457 206.445 9.25556C206.6 9.01876 206.637 8.6038 206.558 8.12087C206.449 7.46015 206.144 6.63316 206.077 6.25525C206.074 6.23928 206.073 6.21808 206.072 6.19388C206.149 6.30097 206.228 6.43968 206.317 6.58704C206.756 7.31775 207.218 8.33543 207.523 8.74288C207.606 8.85227 208.129 9.56555 208.403 9.71932C208.643 9.85436 208.843 9.80065 208.978 9.69122C209.145 9.55473 209.245 9.34575 209.258 9.07702C209.279 8.67153 209.023 8.02943 208.957 7.80239C208.691 6.89444 208.372 6.01759 208.103 5.11746C207.992 4.74546 207.889 4.36961 207.803 3.98516C207.784 3.90224 207.685 3.56002 207.645 3.23518C207.642 3.21257 207.64 3.1873 207.639 3.1613C207.706 3.22376 207.765 3.30678 207.821 3.39501C208.051 3.76066 208.199 4.24346 208.329 4.55672C208.69 5.43565 209.012 6.34746 209.388 7.2249C209.648 7.83113 209.933 8.4218 210.279 8.97349C210.475 9.30126 211.024 10.1461 211.55 10.5671C211.961 10.8961 212.379 10.9557 212.722 10.7339C212.996 10.5562 213.141 10.1957 213.172 9.74599C213.214 9.11788 212.991 8.27588 212.889 7.96396C212.693 7.38 212.463 6.80486 212.196 6.2462C211.821 5.45804 211.385 4.70084 211.057 3.89347C210.927 3.57061 210.808 3.24279 210.714 2.90406C210.668 2.73582 210.487 2.15429 210.405 1.60755C210.382 1.45805 210.425 1.28373 210.437 1.15383C210.471 1.17801 210.506 1.20636 210.54 1.23218C210.727 1.37092 210.891 1.56497 211 1.70827C211.402 2.23281 211.719 2.70454 211.994 3.21125C212.264 3.70722 212.491 4.23759 212.72 4.88209L213.343 6.34454C213.716 7.27138 214.707 6.74486 214.358 5.86452L213.757 4.42172C213.482 3.71502 213.211 3.13648 212.898 2.59554C212.58 2.04678 212.22 1.53544 211.764 0.970517C211.565 0.724361 211.244 0.386253 210.902 0.191283C210.577 0.00662141 210.236 -0.0584977 209.924 0.0589893C209.643 0.165164 209.431 0.468986 209.396 0.960392C209.346 1.66409 209.663 2.91725 209.73 3.1942C209.864 3.77786 210.057 4.33965 210.28 4.89044C210.576 5.62175 210.91 6.34141 211.256 7.04837C211.477 7.50008 211.713 7.93887 211.904 8.40052C211.964 8.5434 212.075 8.83603 212.15 9.15508C212.193 9.33694 212.231 9.52569 212.234 9.69645C212.234 9.7522 212.236 9.80539 212.227 9.85337C212.21 9.9412 212.15 9.88432 212.081 9.86201C211.942 9.78273 211.799 9.65898 211.663 9.51717C211.322 9.16189 211.022 8.71197 210.889 8.5078C210.569 7.99435 210.302 7.44552 210.064 6.88001C209.695 6.00445 209.391 5.09085 209.041 4.21177C208.873 3.78882 208.661 3.10982 208.323 2.6747C208.117 2.41055 207.867 2.22766 207.573 2.16574C207.21 2.08928 207.001 2.26579 206.883 2.56253C206.822 2.71637 206.798 2.93534 206.812 3.17603C206.836 3.58588 206.966 4.07852 206.988 4.18661C207.074 4.59707 207.177 4.999 207.29 5.39652C207.531 6.24358 207.818 7.07002 208.064 7.92058C207.722 7.37742 207.25 6.35431 206.82 5.74766C206.592 5.42489 206.358 5.20547 206.161 5.12391C205.813 4.97978 205.585 5.09656 205.43 5.29557C205.349 5.39961 205.287 5.5426 205.257 5.70968C205.214 5.94938 205.233 6.24627 205.268 6.42589C205.333 6.75614 205.584 7.42439 205.73 8.03022C205.778 8.22984 205.9 8.5269 205.821 8.58416C205.742 8.64143 204.954 7.57483 204.954 7.57483C204.909 7.51214 204.842 7.40839 204.771 7.32789C204.755 7.30387 204.736 7.28048 204.715 7.25808C204.657 7.19838 204.538 7.14214 204.493 7.12875Z" fill="white"/>
<path fill-rule="evenodd" clip-rule="evenodd" d="M60.8527 71.7952C61.2715 71.2098 62.1492 70.0186 62.1794 70.0448L62.3029 70.152C62.4096 70.2446 62.6458 70.1442 62.7522 70.2366C62.7867 70.2665 62.9372 70.1642 62.5289 70.8064C61.8311 71.9042 60.8621 73.2021 60.266 74.0352C59.1361 75.6146 57.212 78.3604 56.0112 80.1936C53.9968 83.269 53.3083 84.6937 51.1093 88.0048C47.9811 92.7149 47.2246 93.5054 44.677 97.237C43.731 98.6226 42.7348 100.117 41.9536 101.364C40.9767 102.924 40.3069 104.123 39.0118 106.066C37.3033 108.628 35.7461 110.657 33.9854 113.311C32.5554 115.466 31.8041 116.757 30.262 118.937C30.036 119.257 29.7905 119.601 29.7082 119.679C29.3577 120.009 29.432 119.668 29.3493 119.596C29.2922 119.547 29.1376 119.642 29.0801 119.592C29.0418 119.558 29.1017 119.381 29.0638 119.348C28.8634 119.175 30.9381 116.304 32.4308 114.176C33.4386 112.74 34.6005 111.093 35.6458 109.559C37.7902 106.412 39.1514 104.063 41.227 100.963C42.2767 99.3946 43.4828 97.6096 44.5031 96.1696C46.0712 93.9564 47.5463 91.9253 49.2515 89.3707C51.7833 85.5777 52.2505 84.6497 54.085 81.7291C55.5879 79.3364 59.2322 74.0603 60.8527 71.7952Z" fill="white"/>
<path fill-rule="evenodd" clip-rule="evenodd" d="M221.951 72.8492C222.26 72.1818 222.914 70.8182 222.948 70.8372L223.088 70.9147C223.209 70.9817 223.423 70.8307 223.543 70.8975C223.582 70.9191 223.712 70.7853 223.423 71.506C222.929 72.7379 222.204 74.2265 221.764 75.1763C220.93 76.9768 219.519 80.098 218.659 82.1631C217.217 85.6277 216.789 87.1781 215.207 90.9148C212.956 96.2305 212.351 97.1742 210.5 101.401C209.812 102.97 209.095 104.658 208.545 106.055C207.857 107.802 207.408 109.127 206.475 111.32C205.244 114.214 204.069 116.55 202.802 119.545C201.774 121.977 201.261 123.41 200.127 125.892C199.961 126.256 199.779 126.648 199.712 126.742C199.426 127.144 199.44 126.793 199.346 126.741C199.281 126.705 199.146 126.833 199.081 126.797C199.038 126.773 199.066 126.586 199.023 126.562C198.797 126.436 200.333 123.159 201.428 120.74C202.167 119.107 203.021 117.233 203.78 115.496C205.337 111.932 206.265 109.326 207.763 105.823C208.52 104.052 209.393 102.033 210.144 100.393C211.298 97.8736 212.393 95.5532 213.622 92.6682C215.447 88.3848 215.744 87.3707 217.037 84.0981C218.096 81.4171 220.754 75.4314 221.951 72.8492Z" fill="white"/>
<path fill-rule="evenodd" clip-rule="evenodd" d="M85.7232 274.591C85.9249 274.194 86.3515 273.383 86.3738 273.395L86.4648 273.441C86.5435 273.48 86.6833 273.391 86.7617 273.43C86.7871 273.443 86.8718 273.364 86.6834 273.792C86.3612 274.525 85.8882 275.41 85.6012 275.975C85.0572 277.046 84.1371 278.902 83.5765 280.13C82.636 282.19 82.3568 283.112 81.3248 285.335C79.8568 288.496 79.4624 289.057 78.2551 291.571C77.8067 292.504 77.3386 293.507 76.9801 294.338C76.5317 295.377 76.2389 296.165 75.6303 297.47C74.8273 299.19 74.0609 300.58 73.235 302.361C72.5642 303.807 72.2296 304.659 71.4899 306.135C71.3816 306.351 71.2635 306.585 71.2196 306.641C71.0328 306.88 71.0417 306.671 70.9808 306.64C70.9387 306.619 70.8505 306.695 70.8081 306.673C70.7799 306.659 70.7981 306.548 70.7702 306.534C70.6224 306.459 71.6246 304.51 72.3387 303.071C72.8207 302.1 73.3776 300.986 73.8726 299.953C74.8882 297.833 75.4932 296.284 76.47 294.2C76.964 293.147 77.5336 291.946 78.0232 290.971C78.7758 289.473 79.4895 288.093 80.2912 286.377C81.4814 283.83 81.6753 283.227 82.5183 281.281C83.2089 279.686 84.943 276.127 85.7232 274.591Z" fill="white"/>
<path fill-rule="evenodd" clip-rule="evenodd" d="M285.018 227.298C285.22 226.902 285.646 226.091 285.669 226.102L285.76 226.148C285.838 226.188 285.978 226.098 286.057 226.138C286.082 226.151 286.167 226.071 285.978 226.5C285.656 227.232 285.183 228.118 284.896 228.682C284.352 229.753 283.432 231.609 282.871 232.837C281.931 234.898 281.652 235.82 280.62 238.042C279.152 241.203 278.757 241.764 277.55 244.278C277.102 245.211 276.633 246.215 276.275 247.046C275.826 248.085 275.534 248.873 274.925 250.177C274.122 251.898 273.356 253.287 272.53 255.068C271.859 256.515 271.524 257.366 270.785 258.843C270.676 259.059 270.558 259.292 270.514 259.348C270.328 259.587 270.337 259.379 270.276 259.348C270.233 259.326 270.145 259.402 270.103 259.381C270.075 259.366 270.093 259.255 270.065 259.241C269.917 259.166 270.919 257.217 271.633 255.779C272.116 254.808 272.672 253.693 273.167 252.66C274.183 250.541 274.788 248.991 275.765 246.908C276.259 245.854 276.828 244.654 277.318 243.679C278.071 242.18 278.784 240.8 279.586 239.085C280.776 236.537 280.97 235.934 281.813 233.988C282.504 232.394 284.238 228.834 285.018 227.298Z" fill="white"/>
<path fill-rule="evenodd" clip-rule="evenodd" d="M55.6162 82.5861C56.035 82.0007 56.9127 80.8095 56.943 80.8358L57.0664 80.9429C57.1731 81.0355 57.4094 80.9352 57.5158 81.0275C57.5502 81.0574 57.7007 80.9552 57.2925 81.5973C56.5946 82.6951 55.6256 83.993 55.0296 84.8261C53.8996 86.4055 51.9755 89.1513 50.7747 90.9845C48.7603 94.06 48.0718 95.4847 45.8728 98.7957C42.7446 103.506 41.9881 104.296 39.4405 108.028C38.4945 109.414 37.4983 110.908 36.7172 112.155C35.7402 113.715 35.0705 114.914 33.7753 116.857C32.0668 119.419 30.5096 121.448 28.7489 124.102C27.3189 126.257 26.5677 127.548 25.0255 129.728C24.7995 130.048 24.554 130.392 24.4717 130.47C24.1212 130.8 24.1955 130.459 24.1129 130.387C24.0557 130.338 23.9011 130.433 23.8436 130.383C23.8053 130.349 23.8652 130.172 23.8273 130.139C23.6269 129.965 25.7016 127.095 27.1944 124.967C28.2021 123.531 29.364 121.884 30.4093 120.35C32.5538 117.203 33.915 114.854 35.9905 111.754C37.0402 110.186 38.2464 108.401 39.2667 106.961C40.8347 104.747 42.3098 102.716 44.0151 100.162C46.5468 96.3687 47.014 95.4406 48.8485 92.52C50.3514 90.1274 53.9957 84.8512 55.6162 82.5861Z" fill="white"/>
<path fill-rule="evenodd" clip-rule="evenodd" d="M218.687 84.5969C218.996 83.9296 219.65 82.5659 219.684 82.5849L219.824 82.6624C219.944 82.7295 220.159 82.5784 220.279 82.6452C220.318 82.6668 220.448 82.533 220.159 83.2537C219.665 84.4856 218.94 85.9742 218.5 86.924C217.665 88.7245 216.255 91.8457 215.395 93.9109C213.953 97.3754 213.525 98.9258 211.942 102.663C209.692 107.978 209.087 108.922 207.236 113.149C206.548 114.718 205.83 116.405 205.281 117.803C204.593 119.55 204.144 120.875 203.211 123.068C201.98 125.962 200.805 128.298 199.538 131.293C198.51 133.725 197.997 135.157 196.863 137.64C196.696 138.003 196.515 138.395 196.448 138.49C196.162 138.892 196.175 138.541 196.082 138.489C196.017 138.453 195.882 138.581 195.817 138.544C195.774 138.52 195.802 138.333 195.759 138.31C195.532 138.184 197.069 134.906 198.164 132.488C198.903 130.855 199.757 128.981 200.516 127.244C202.073 123.68 203.001 121.074 204.499 117.571C205.256 115.799 206.129 113.78 206.88 112.141C208.034 109.621 209.128 107.301 210.358 104.416C212.183 100.133 212.48 99.1185 213.772 95.8458C214.831 93.1648 217.49 87.1791 218.687 84.5969Z" fill="white"/>
<path fill-rule="evenodd" clip-rule="evenodd" d="M83.594 281.577C83.7957 281.18 84.2223 280.369 84.2446 280.381L84.3356 280.427C84.4143 280.467 84.5541 280.377 84.6326 280.417C84.6579 280.429 84.7426 280.35 84.5542 280.778C84.232 281.511 83.7591 282.396 83.4721 282.961C82.928 284.032 82.008 285.888 81.4473 287.116C80.5068 289.176 80.2276 290.099 79.1956 292.321C77.7276 295.482 77.3332 296.043 76.1259 298.557C75.6776 299.49 75.2094 300.494 74.8509 301.324C74.4025 302.364 74.1097 303.151 73.5011 304.456C72.6982 306.176 71.9317 307.566 71.1058 309.347C70.435 310.793 70.1004 311.645 69.3607 313.121C69.2524 313.338 69.1343 313.571 69.0904 313.627C68.9036 313.866 68.9126 313.657 68.8516 313.626C68.8095 313.605 68.7213 313.681 68.6789 313.659C68.6507 313.645 68.669 313.534 68.641 313.52C68.4932 313.445 69.4954 311.496 70.2095 310.057C70.6916 309.086 71.2484 307.972 71.7435 306.939C72.759 304.819 73.364 303.27 74.3408 301.187C74.8348 300.133 75.4044 298.932 75.8941 297.957C76.6466 296.459 77.3603 295.079 78.162 293.363C79.3523 290.816 79.5462 290.213 80.3891 288.267C81.0797 286.672 82.8138 283.113 83.594 281.577Z" fill="white"/>
<path fill-rule="evenodd" clip-rule="evenodd" d="M282.889 234.285C283.091 233.888 283.517 233.077 283.54 233.088L283.631 233.135C283.709 233.174 283.849 233.085 283.928 233.124C283.953 233.137 284.038 233.058 283.849 233.486C283.527 234.219 283.054 235.104 282.767 235.669C282.223 236.74 281.303 238.596 280.742 239.824C279.802 241.884 279.523 242.806 278.491 245.028C277.023 248.19 276.628 248.751 275.421 251.264C274.973 252.198 274.505 253.201 274.146 254.032C273.698 255.071 273.405 255.859 272.796 257.164C271.993 258.884 271.227 260.273 270.401 262.054C269.73 263.501 269.396 264.353 268.656 265.829C268.547 266.045 268.429 266.278 268.385 266.335C268.199 266.574 268.208 266.365 268.147 266.334C268.105 266.313 268.016 266.389 267.974 266.367C267.946 266.353 267.964 266.242 267.936 266.228C267.788 266.153 268.79 264.204 269.505 262.765C269.987 261.794 270.544 260.68 271.039 259.647C272.054 257.527 272.659 255.977 273.636 253.894C274.13 252.841 274.699 251.64 275.189 250.665C275.942 249.167 276.655 247.787 277.457 246.071C278.647 243.524 278.841 242.921 279.684 240.975C280.375 239.38 282.109 235.821 282.889 234.285Z" fill="white"/>
<path fill-rule="evenodd" clip-rule="evenodd" d="M66.2187 69.876C66.6375 69.2906 67.5152 68.0994 67.5455 68.1257L67.6689 68.2328C67.7757 68.3254 68.0119 68.2251 68.1183 68.3174C68.1527 68.3473 68.3032 68.245 67.895 68.8872C67.1971 69.985 66.2282 71.2829 65.6321 72.116C64.5022 73.6954 62.578 76.4412 61.3773 78.2744C59.3628 81.3499 58.6744 82.7746 56.4754 86.0856C53.3472 90.7958 52.5906 91.5862 50.043 95.3178C49.0971 96.7034 48.1008 98.1978 47.3197 99.4452C46.3427 101.005 45.673 102.204 44.3779 104.147C42.6693 106.709 41.1121 108.738 39.3515 111.392C37.9214 113.547 37.1702 114.837 35.628 117.018C35.4021 117.338 35.1566 117.682 35.0742 117.759C34.7237 118.09 34.798 117.749 34.7154 117.677C34.6583 117.628 34.5037 117.722 34.4461 117.672C34.4078 117.639 34.4678 117.462 34.4298 117.429C34.2294 117.255 36.3041 114.384 37.7969 112.257C38.8046 110.821 39.9666 109.174 41.0118 107.64C43.1563 104.492 44.5175 102.144 46.5931 99.0435C47.6427 97.4754 48.8489 95.6904 49.8692 94.2504C51.4372 92.0372 52.9124 90.0062 54.6176 87.4515C57.1493 83.6586 57.6166 82.7305 59.4511 79.8099C60.9539 77.4173 64.5982 72.1411 66.2187 69.876Z" fill="white"/>
<path fill-rule="evenodd" clip-rule="evenodd" d="M226.879 69.771C227.189 69.1036 227.843 67.74 227.877 67.759L228.017 67.8365C228.137 67.9035 228.352 67.7524 228.472 67.8193C228.511 67.8409 228.641 67.7071 228.352 68.4277C227.858 69.6597 227.133 71.1483 226.693 72.0981C225.858 73.8986 224.448 77.0197 223.588 79.0849C222.146 82.5495 221.718 84.0999 220.135 87.8366C217.885 93.1523 217.28 94.096 215.429 98.3227C214.741 99.8922 214.023 101.58 213.474 102.977C212.786 104.724 212.337 106.049 211.404 108.242C210.173 111.136 208.998 113.472 207.731 116.467C206.703 118.899 206.19 120.332 205.055 122.814C204.889 123.177 204.708 123.569 204.641 123.664C204.355 124.066 204.368 123.715 204.275 123.663C204.21 123.627 204.075 123.755 204.01 123.719C203.967 123.694 203.995 123.508 203.952 123.484C203.725 123.358 205.262 120.08 206.357 117.662C207.096 116.029 207.95 114.155 208.709 112.418C210.266 108.854 211.194 106.248 212.692 102.745C213.449 100.973 214.322 98.9543 215.073 97.3149C216.227 94.7953 217.321 92.475 218.551 89.59C220.376 85.3066 220.673 84.2925 221.965 81.0199C223.024 78.3389 225.683 72.3531 226.879 69.771Z" fill="white"/>
<path fill-rule="evenodd" clip-rule="evenodd" d="M88.9376 272.76C89.1392 272.363 89.5658 271.552 89.5882 271.564L89.6792 271.61C89.7579 271.65 89.8976 271.56 89.9761 271.6C90.0015 271.612 90.0862 271.533 89.8977 271.961C89.5755 272.694 89.1026 273.579 88.8156 274.144C88.2716 275.215 87.3515 277.071 86.7909 278.299C85.8503 280.359 85.5711 281.282 84.5392 283.504C83.0712 286.665 82.6767 287.226 81.4694 289.74C81.0211 290.673 80.553 291.677 80.1944 292.507C79.746 293.547 79.4533 294.335 78.8446 295.639C78.0417 297.359 77.2752 298.749 76.4493 300.53C75.7785 301.976 75.4439 302.828 74.7043 304.304C74.5959 304.521 74.4778 304.754 74.4339 304.81C74.2471 305.049 74.2561 304.84 74.1952 304.809C74.153 304.788 74.0649 304.864 74.0224 304.842C73.9942 304.828 74.0125 304.717 73.9846 304.703C73.8367 304.628 74.8389 302.679 75.553 301.24C76.0351 300.269 76.592 299.155 77.087 298.122C78.1026 296.003 78.7076 294.453 79.6844 292.37C80.1784 291.316 80.7479 290.115 81.2376 289.14C81.9902 287.642 82.7039 286.262 83.5056 284.546C84.6958 281.999 84.8897 281.396 85.7327 279.45C86.4233 277.855 88.1573 274.296 88.9376 272.76Z" fill="white"/>
<path fill-rule="evenodd" clip-rule="evenodd" d="M288.233 225.468C288.434 225.071 288.861 224.26 288.883 224.271L288.974 224.318C289.053 224.357 289.193 224.268 289.271 224.307C289.297 224.32 289.381 224.241 289.193 224.669C288.871 225.402 288.398 226.287 288.111 226.852C287.567 227.923 286.647 229.779 286.086 231.007C285.145 233.067 284.866 233.989 283.834 236.211C282.366 239.373 281.972 239.934 280.765 242.447C280.316 243.381 279.848 244.384 279.49 245.215C279.041 246.254 278.748 247.042 278.14 248.347C277.337 250.067 276.57 251.457 275.744 253.238C275.074 254.684 274.739 255.536 273.999 257.012C273.891 257.228 273.773 257.461 273.729 257.518C273.542 257.757 273.551 257.548 273.49 257.517C273.448 257.496 273.36 257.572 273.318 257.55C273.289 257.536 273.308 257.425 273.28 257.411C273.132 257.336 274.134 255.387 274.848 253.948C275.33 252.977 275.887 251.863 276.382 250.83C277.398 248.71 278.003 247.16 278.979 245.077C279.473 244.024 280.043 242.823 280.533 241.848C281.285 240.35 281.999 238.97 282.801 237.254C283.991 234.707 284.185 234.104 285.028 232.158C285.718 230.563 287.452 227.004 288.233 225.468Z" fill="white"/>
<path fill-rule="evenodd" clip-rule="evenodd" d="M144.309 170.77C144.608 170.462 145.233 169.839 145.251 169.858L145.326 169.933C145.39 169.998 145.547 169.962 145.611 170.027C145.632 170.048 145.734 170.001 145.438 170.344C144.934 170.929 144.244 171.607 143.818 172.045C143.011 172.874 141.633 174.321 140.767 175.295C139.315 176.928 138.799 177.709 137.216 179.465C134.964 181.963 134.437 182.36 132.608 184.332C131.928 185.064 131.211 185.856 130.645 186.522C129.938 187.355 129.446 188.003 128.514 189.033C127.284 190.391 126.179 191.447 124.911 192.855C123.881 193.998 123.332 194.692 122.229 195.84C122.067 196.008 121.892 196.189 121.835 196.227C121.592 196.39 121.657 196.194 121.608 196.143C121.574 196.108 121.469 196.15 121.435 196.115C121.412 196.091 121.459 195.992 121.436 195.969C121.316 195.846 122.797 194.34 123.866 193.219C124.587 192.463 125.419 191.596 126.169 190.785C127.709 189.121 128.704 187.856 130.197 186.214C130.952 185.383 131.819 184.438 132.549 183.681C133.671 182.516 134.723 181.452 135.95 180.098C137.772 178.087 138.12 177.581 139.449 176.022C140.537 174.745 143.151 171.96 144.309 170.77Z" fill="white"/>
</svg>
